<svg aria-hidden="true" style="width:0;height:0;position:absolute;overflow:hidden" xmlns="http://www.w3.org/2000/svg"><defs><symbol id="icon-facebook" viewBox="0 0 32 32"><path fill="#f8d24e" style="fill:var(--color1,#f8d24e)" d="M16 32c8.837 0 16-7.163 16-16S24.837 0 16 0 0 7.163 0 16s7.163 16 16 16z"/><path d="M20.446 15.982h-2.61v9.619h-3.955v-9.619H12v-3.38h1.881v-2.187c0-1.564.739-4.014 3.99-4.014l2.929.012v3.281h-2.125c-.349 0-.839.175-.839.921v1.989h2.955l-.346 3.377z"/></symbol><symbol id="icon-telegram" viewBox="0 0 32 32"><path fill="#f8d24e" style="fill:var(--color1,#f8d24e)" d="M32 16c0 8.837-7.163 16-16 16S0 24.837 0 16 7.163 0 16 0s16 7.163 16 16z"/><path d="m12.868 18.375-.318 4.169c.454 0 .651-.182.887-.401l2.13-1.9 4.415 3.017c.81.421 1.38.199 1.599-.695l2.898-12.672.001-.001c.257-1.117-.433-1.554-1.222-1.28L6.226 14.698c-1.162.421-1.145 1.026-.198 1.3l4.355 1.264 10.115-5.907c.476-.294.909-.131.553.163l-8.182 6.857z"/></symbol><symbol id="icon-github" viewBox="0 0 32 32"><path fill="#f8d24e" style="fill:var(--color1,#f8d24e)" d="M32 16c0 8.837-7.163 16-16 16S0 24.837 0 16 7.163 0 16 0s16 7.163 16 16z"/><path d="M16 6.588c-5.169 0-9.412 4.242-9.412 9.412 0 4.411 3.095 8.419 7.206 9.412v-3.114a2.307 2.307 0 0 1-1.197-.03c-.556-.164-1.008-.535-1.344-1.1-.214-.361-.593-.752-.988-.723l-.097-1.099c.855-.073 1.595.521 2.034 1.259.195.328.419.52.708.605.278.082.578.043.926-.08.088-.698.407-.959.648-1.326-2.451-.366-3.428-1.667-3.816-2.693-.514-1.363-.238-3.066.671-4.142.018-.021.05-.076.037-.114-.417-1.258.091-2.299.11-2.41.481.142.559-.143 2.089.786l.264.159c.111.066.076.028.186.02A8.031 8.031 0 0 1 16 11.132a8.016 8.016 0 0 1 2.002.285l.086.009c-.007-.001.023-.005.075-.036 1.911-1.157 1.842-.779 2.355-.946.019.111.519 1.169.107 2.411-.056.171 1.657 1.739.708 4.256-.388 1.027-1.365 2.328-3.816 2.693.314.479.692.734.69 1.722v3.887c4.111-.993 7.206-5 7.206-9.412 0-5.169-4.242-9.412-9.412-9.412z"/></symbol><symbol id="icon-Logo4" viewBox="0 0 57 32"><path d="M12.878 11.255h-.002c-1.279 0-2.316.921-2.316 2.058v.001c0 1.137 1.037 2.058 2.316 2.058h.002c1.279 0 2.316-.921 2.316-2.058v-.001c0-1.137-1.037-2.058-2.316-2.058zM29.971 10.597c-.004-1.579-.711-3.092-1.967-4.208s-2.958-1.745-4.735-1.749c-1.777.003-3.48.631-4.737 1.748s-1.964 2.63-1.968 4.209v8.706s13.405-1.327 13.406-8.704v-.001zM5.867 22.16c.003 1.098.496 2.151 1.369 2.928s2.058 1.215 3.294 1.218c1.236-.003 2.42-.441 3.294-1.218s1.366-1.829 1.37-2.927v-6.057s-9.327.924-9.327 6.056zm4.663 1.085c-.242 0-.478-.064-.678-.183s-.357-.289-.45-.487c-.092-.198-.117-.417-.069-.627s.163-.404.334-.556c.171-.152.388-.255.625-.297s.482-.02.706.062c.223.082.414.221.548.4s.206.388.206.603c.001.143-.031.284-.092.417s-.151.252-.264.353c-.114.101-.248.182-.397.236s-.308.083-.468.083v-.004zM19.956 22.647h-.9v.93h-.469v-2.275h1.481v.38h-1.012v.588h.9v.378zm2.253-.156c0 .224-.04.42-.119.589a.893.893 0 0 1-.847.528c-.189 0-.357-.045-.505-.136s-.262-.22-.344-.387a1.344 1.344 0 0 1-.123-.581v-.112c0-.224.04-.421.12-.591a.895.895 0 0 1 .848-.529c.189 0 .358.046.505.137a.888.888 0 0 1 .342.392c.081.17.122.366.122.589v.102zm-.475-.103c0-.238-.043-.42-.128-.544s-.207-.186-.366-.186a.416.416 0 0 0-.364.184c-.085.122-.129.301-.13.538v.111c0 .232.043.412.128.541s.208.192.369.192a.415.415 0 0 0 .363-.184c.084-.124.127-.304.128-.541v-.111zm1.996.592a.237.237 0 0 0-.094-.203 1.203 1.203 0 0 0-.337-.15 2.418 2.418 0 0 1-.386-.156c-.258-.14-.387-.328-.387-.564 0-.123.034-.232.103-.328a.688.688 0 0 1 .298-.227c.13-.054.276-.081.438-.081.163 0 .307.03.434.089a.662.662 0 0 1 .401.614h-.469c0-.104-.033-.185-.098-.242s-.158-.087-.277-.087a.426.426 0 0 0-.267.073.225.225 0 0 0-.095.191c0 .074.037.136.111.186.075.05.185.097.33.141.267.08.461.18.583.298s.183.267.183.444a.55.55 0 0 1-.223.464c-.149.111-.349.167-.602.167-.175 0-.334-.032-.478-.095-.144-.065-.254-.153-.33-.264s-.113-.241-.113-.388h.47c0 .251.15.377.45.377a.442.442 0 0 0 .261-.067.222.222 0 0 0 .094-.191zm2.501-1.298h-.697v1.895h-.469v-1.895h-.687v-.38h1.853v.38zm1.638.909h-.9v.609h1.056v.377H26.5v-2.275h1.522v.38h-1.053v.542h.9v.367zm1.273.153h-.373v.833H28.3v-2.275h.845c.269 0 .476.06.622.18s.219.289.219.508a.697.697 0 0 1-.102.389.689.689 0 0 1-.305.247l.492.93v.022h-.503l-.427-.833zm-.373-.379h.378c.118 0 .209-.03.273-.089a.321.321 0 0 0 .097-.248.343.343 0 0 0-.092-.253c-.06-.061-.154-.092-.28-.092h-.377v.683zm2.84.41v.802h-.469v-2.275h.887c.171 0 .321.031.45.094a.703.703 0 0 1 .405.659.655.655 0 0 1-.23.528c-.152.128-.363.192-.633.192h-.411zm0-.379h.419c.124 0 .218-.029.283-.088.066-.058.098-.142.098-.25 0-.111-.033-.202-.098-.27s-.156-.104-.272-.106h-.43v.714zm2.966.195h-.9v.609h1.056v.377h-1.525v-2.275h1.522v.38h-1.053v.542h.9v.367zm2.175-.909h-.697v1.895h-.469v-1.895h-.688v-.38h1.853v.38zm1.637.909h-.9v.609h1.056v.377h-1.525v-2.275h1.522v.38h-1.053v.542h.9v.367zm1.274.153h-.373v.833h-.469v-2.275h.845c.269 0 .476.06.622.18s.219.289.219.508a.697.697 0 0 1-.102.389.689.689 0 0 1-.305.247l.492.93v.022h-.503l-.427-.833zm-.374-.379h.378c.118 0 .209-.03.273-.089a.321.321 0 0 0 .097-.248.343.343 0 0 0-.092-.253c-.06-.061-.154-.092-.28-.092h-.377v.683zm2.755.615a.237.237 0 0 0-.094-.203 1.203 1.203 0 0 0-.337-.15 2.418 2.418 0 0 1-.386-.156c-.258-.14-.388-.328-.388-.564 0-.123.034-.232.103-.328a.688.688 0 0 1 .298-.227c.13-.054.276-.081.438-.081.163 0 .307.03.434.089a.675.675 0 0 1 .295.248.646.646 0 0 1 .106.366h-.469c0-.104-.033-.185-.098-.242s-.158-.087-.277-.087a.426.426 0 0 0-.267.073.225.225 0 0 0-.095.191c0 .074.037.136.111.186.075.05.185.097.33.141.267.08.461.18.583.298s.183.267.183.444a.548.548 0 0 1-.223.464c-.149.111-.349.167-.602.167-.175 0-.334-.032-.478-.095a.773.773 0 0 1-.33-.264.678.678 0 0 1-.112-.388h.47c0 .251.15.377.45.377a.442.442 0 0 0 .261-.067.222.222 0 0 0 .094-.191z"/></symbol></defs></svg>