<svg aria-hidden="true" xmlns="http://www.w3.org/2000/svg"><defs><symbol id="icon-icon-arrow" viewBox="0 0 22 32"><path stroke-linejoin="round" stroke-linecap="round" stroke-width="6.4" d="m4.545 3.2 13.7 12.8-13.7 12.8"/></symbol><symbol id="icon-contacts-button" viewBox="0 0 16 32"><path d="M.611.704A2.587 2.587 0 0 0 0 2.379v.028-.001c0 .637.221 1.248.611 1.699l10.346 11.91L.608 27.919a2.596 2.596 0 0 0-.586 1.648v.05-.003c.003.63.224 1.232.611 1.68s.912.698 1.459.704a1.947 1.947 0 0 0 1.47-.673l.002-.002 11.821-13.61c.382-.45.614-1.037.614-1.679v-.021.001a2.61 2.61 0 0 0-.611-1.702L3.567.702A1.958 1.958 0 0 0 2.09-.002h-.001c-.554 0-1.088.256-1.482.704z"/></symbol><symbol id="icon-button-mail" viewBox="0 0 43 32"><path d="M37.333 0h-32c-2.2 0-3.981 1.8-3.981 4l-.019 24c0 2.2 1.8 4 4 4h32c2.2 0 4-1.8 4-4V4c0-2.2-1.8-4-4-4zm-.8 8.501-14.139 8.837a2.02 2.02 0 0 1-2.129-.005l.009.005-14.141-8.84A1.7 1.7 0 1 1 7.94 5.621l-.006-.004 13.4 8.381 13.4-8.381a1.7 1.7 0 1 1 1.808 2.876l-.008.004z"/></symbol><symbol id="icon-button-tel" viewBox="0 0 32 32"><path d="m27.419 20.853-4.201-.48a3.28 3.28 0 0 0-2.713.941l-3.045 3.045c-4.718-2.435-8.467-6.185-10.835-10.764l-.065-.139L9.623 10.4a3.281 3.281 0 0 0 .94-2.729l.002.016-.48-4.169A3.314 3.314 0 0 0 6.798.592H3.933C2.063.587.509 2.142.623 4.009c.878 14.126 12.176 25.408 26.286 26.286 1.867.114 3.424-1.44 3.424-3.31v-2.878a3.279 3.279 0 0 0-2.897-3.256l-.015-.001z"/></symbol></defs></svg>