<svg aria-hidden="true" xmlns="http://www.w3.org/2000/svg">
  <defs>
    <symbol id="icon-icon-arrow" viewBox="0 0 22 32">
      <path stroke-linejoin="round" stroke-linecap="round" stroke-width="6.4" d="m4.545 3.2 13.7 12.8-13.7 12.8" />
    </symbol>
    <symbol id="icon-contacts-button" viewBox="0 0 16 32">
<path d="M0.611 0.704c-0.38 0.449-0.611 1.035-0.611 1.675 0 0.009 0 0.019 0 0.028v-0.001c0 0.637 0.221 1.248 0.611 1.699l10.346 11.91-10.349 11.904c-0.365 0.446-0.586 1.021-0.586 1.648 0 0.017 0 0.033 0 0.050l-0-0.003c0.003 0.63 0.224 1.232 0.611 1.68s0.912 0.698 1.459 0.704c0.587-0.001 1.113-0.262 1.47-0.673l0.002-0.002 11.821-13.61c0.382-0.45 0.614-1.037 0.614-1.679 0-0.007-0-0.014-0-0.021v0.001c0-0.64-0.221-1.251-0.611-1.702l-11.821-13.61c-0.357-0.425-0.885-0.696-1.477-0.704l-0.001-0c-0.554 0-1.088 0.256-1.482 0.704z"></path>
</symbol>
<symbol id="icon-button-mail" viewBox="0 0 43 32">
<path d="M37.333 0h-32c-2.2 0-3.981 1.8-3.981 4l-0.019 24c0 2.2 1.8 4 4 4h32c2.2 0 4-1.8 4-4v-24c0-2.2-1.8-4-4-4zM36.533 8.501l-14.139 8.837c-0.302 0.188-0.668 0.3-1.060 0.3s-0.758-0.112-1.069-0.305l0.009 0.005-14.141-8.84c-0.503-0.301-0.835-0.843-0.835-1.463 0-0.938 0.761-1.699 1.699-1.699 0.349 0 0.673 0.105 0.943 0.285l-0.006-0.004 13.4 8.381 13.4-8.381c0.264-0.176 0.588-0.282 0.937-0.282 0.938 0 1.699 0.761 1.699 1.699 0 0.62-0.332 1.162-0.828 1.459l-0.008 0.004z"></path>
</symbol>
<symbol id="icon-button-tel" viewBox="0 0 32 32">
<path d="M27.419 20.853l-4.201-0.48c-0.116-0.014-0.25-0.023-0.385-0.023-0.909 0-1.732 0.369-2.328 0.964l-3.045 3.045c-4.718-2.435-8.467-6.185-10.835-10.764l-0.065-0.139 3.063-3.056c0.596-0.596 0.964-1.419 0.964-2.328 0-0.136-0.008-0.27-0.024-0.401l0.002 0.016-0.48-4.169c-0.199-1.655-1.595-2.926-3.287-2.926-0.001 0-0.003 0-0.004 0h-2.861c-1.87-0.005-3.424 1.55-3.31 3.417 0.878 14.126 12.176 25.408 26.286 26.286 1.867 0.114 3.424-1.44 3.424-3.31v-2.862c0-0.005 0-0.010 0-0.016 0-1.681-1.266-3.067-2.897-3.256l-0.015-0.001z"></path>
</symbol>

  </defs>
</svg>